<svg xmlns="http://www.w3.org/2000/svg" width="635" height="451" viewBox="0 0 635 451"><defs><style>.cls-1{fill:#8e999f;}.cls-2{fill:#ffe181;}.cls-3{fill:#f2acac;}.cls-4{fill:#f2f2f2;}.cls-5{fill:#bdccd4;}</style></defs><g id="brumbasse"><path class="cls-1" d="M418.17,108.65c-12.28,47.31-42.39,80.43-67.25,74s-56.46-87.49-44.18-134.8,63.81-43,88.66-36.52S430.45,61.34,418.17,108.65Z"/><path d="M85.5,278c0,79.25,155.14,143,291,143s184-72.75,184-152-48.14-135-184-135S85.5,198.75,85.5,278Z"/><polygon points="107.8 235.55 108.03 279.32 108.26 323.08 70.24 301.4 32.22 279.71 70.01 257.63 107.8 235.55"/><path class="cls-2" d="M564.5,272c0,66.27-64,149-120,139-50.56-9-87-70.73-87-137s41.65-130.33,93-129C527.5,147,564.5,205.73,564.5,272Z"/><path class="cls-2" d="M337.9,419.6c18.36,2.1-42.4-4.6-54.4-7.6-19.4-4.85-5-266,16-272s72.72-4.56,55.4-6.4C330.5,131,306.5,416,337.9,419.6Z"/><path class="cls-2" d="M221.66,394c16.79,7.67-52.16-12-56.16-21.06-8-18.15,1.71-189.9,21-199.58,20-10,77-27.19,58-21.06C213.5,162.32,186.5,378,221.66,394Z"/><ellipse class="cls-3" cx="522.69" cy="298.83" rx="25.81" ry="8.9"/><circle cx="508.01" cy="285.92" r="20.02"/><ellipse class="cls-4" cx="507.27" cy="286.23" rx="15.23" ry="14.58"/><path d="M507.53,285.79l9.51,3.58c-2.22,5.41-8.34,8.26-13.56,6.29A10.1,10.1,0,0,1,498,282.21c2.22-5.42,8.35-8.26,13.57-6.3a9.68,9.68,0,0,1,6,7Z"/><ellipse class="cls-4" cx="503.76" cy="291.72" rx="2.32" ry="2.22"/><ellipse class="cls-3" cx="410.09" cy="295.49" rx="25.75" ry="8.88"/><circle cx="426.52" cy="282.62" r="19.98"/><ellipse class="cls-4" cx="426.54" cy="283.31" rx="15.23" ry="14.58"/><path d="M426.8,282.87l9.51,3.57c-2.22,5.42-8.34,8.26-13.57,6.3a10.1,10.1,0,0,1-5.46-13.45c2.22-5.42,8.35-8.26,13.57-6.3a9.68,9.68,0,0,1,6,7Z"/><ellipse class="cls-4" cx="423.03" cy="288.79" rx="2.32" ry="2.22"/><path d="M448.12,305.54c4.95,5.26,11.39,9,18.33,8.39,5.9-.55,11.15-3.88,15.42-8.39,1.91-2-.95-5.25-2.85-3.24-3.44,3.63-7.79,6.61-12.57,7.05-5.91.55-11.26-2.56-15.48-7.05-1.89-2-4.74,1.22-2.85,3.24Z"/><path d="M466.83,158.53c-.54-12.12-4.63-24.45-14.24-32.41-8.16-6.76-18.55-9.58-29-9.84-4.66-.12-4.56,7.1.08,7.22,8.41.21,17.26,2.31,23.87,7.78,8.18,6.79,11.6,17,12.06,27.33.2,4.64,7.42,4.57,7.22-.08Z"/><path d="M500,164.29c.53-12.12,4.62-24.45,14.23-32.41,8.16-6.75,18.55-9.58,29-9.84,4.65-.12,4.55,7.1-.09,7.22-8.41.21-17.26,2.31-23.86,7.79-8.18,6.78-11.61,17-12.06,27.32-.21,4.64-7.43,4.57-7.22-.08Z"/><path class="cls-5" d="M349.12,86.8c20.71,44.28,18.63,89-4.63,99.87S245.2,155.28,224.5,111s21.75-73.79,45-84.67S328.42,42.53,349.12,86.8Z"/></g></svg>