<svg id="Layer_1" data-name="Layer 1" xmlns="http://www.w3.org/2000/svg" width="123.82" height="117.63" viewBox="0 0 123.82 117.63"><defs><style>.cls-1{fill:#e7afae;}.cls-2,.cls-3{fill:#ca5d50;}.cls-3{stroke:#fff;stroke-miterlimit:10;}.cls-4{fill:#fff;}</style></defs><rect class="cls-1" x="6.04" y="5.79" width="113.11" height="108.68" rx="14"/><rect class="cls-2" x="20.87" y="36.61" width="81.63" height="47.04"/><polygon class="cls-3" points="22.07 35.97 61.68 35.97 101.29 35.97 81.49 51.78 61.68 67.59 41.88 51.78 22.07 35.97"/><path class="cls-4" d="M93.34,80.66a8.61,8.61,0,0,1-4.19.94A7,7,0,0,1,82,74.26c0-4.85,3.36-9,8.58-9A6.53,6.53,0,0,1,97.45,72c0,3.53-2,5.6-4.18,5.6a1.74,1.74,0,0,1-1.74-2.07h-.1a3.68,3.68,0,0,1-3.31,2.07,2.67,2.67,0,0,1-2.54-3,5.55,5.55,0,0,1,5.57-5.58,6.12,6.12,0,0,1,2.52.5l-.8,4.25c-.36,1.79-.07,2.62.7,2.64,1.2,0,2.54-1.58,2.54-4.31,0-3.41-2-5.85-5.69-5.85-3.83,0-7,3-7,7.81,0,3.93,2.56,6.35,6,6.35A7.33,7.33,0,0,0,93,79.65ZM92,70.49a3.83,3.83,0,0,0-4.91,4.07c0,1,.52,1.79,1.55,1.79,1.37,0,2.61-1.74,2.87-3.2Z"/></svg>