<svg xmlns="http://www.w3.org/2000/svg" width="635" height="615" viewBox="0 0 635 615"><defs><style>.cls-1{fill:#f2acac;}.cls-2{fill:#ffe5ee;}.cls-3{fill:#b2413a;}.cls-4{fill:#d9564a;}.cls-5{fill:#fb8;}.cls-6{fill:#a36100;}.cls-7{fill:#44a694;}</style></defs><g id="æble"><g id="baggrund"><path class="cls-1" d="M610.5,307.27c0-161.82-131.18-293-293-293a293,293,0,0,0-293,293c0,161.82,131.18,293,293,293A291.68,291.68,0,0,0,483,549.05C560,496.25,610.5,407.66,610.5,307.27Z"/><path class="cls-2" d="M44.5,292.27A292.44,292.44,0,0,1,152,65.49C75,118.29,24.5,206.88,24.5,307.27c0,161.82,131.18,293,293,293A291.82,291.82,0,0,0,503,534.05,291.68,291.68,0,0,1,337.5,585.27C175.68,585.27,44.5,454.09,44.5,292.27Z"/></g><path class="cls-3" d="M420.72,166c-34.44,0-62.36,12.47-88.55,31.18-29.93-20-54.7-29.93-88.55-29.93-72.32,0-140.39,65.6-130.95,145.29,10,84.18,56.13,121.6,131,145.29,32.84,10.4,56.13,6.24,88.55-6.23,27.44,12.47,56.32,15.34,88.55,5,69.84-22.45,122.22-64.86,130.95-145.3C560.33,231.52,493,166,420.72,166Z"/><path class="cls-4" d="M533.35,429.67q3-3.37,5.75-6.92L370,270.83q-3.24,3.07-6.27,6.45a114,114,0,0,0,169.6,152.39Z"/><path class="cls-5" d="M547.45,413.25q3-3.37,5.75-6.92L384.12,254.41q-3.24,3.07-6.27,6.45a114,114,0,0,0,169.6,152.39Z"/><path class="cls-6" d="M505,362.83l-65-58.37c-.82.79-7.56,36.44,13.48,55.06C469.63,373.82,504.26,363.74,505,362.83Z"/><path class="cls-7" d="M367.32,190.38c-8.23,3.61-26.71,11.7-29.82,4.62s9.77-23.39,18-27,23.89-7.08,27,0S375.55,186.77,367.32,190.38Z"/><ellipse class="cls-6" cx="334.5" cy="184" rx="7" ry="28"/><path class="cls-6" d="M342.92,192.27l-.84-.54c4.78-7.43,12.92-10.19,20.11-12.62,6.73-2.27,12.55-4.24,14.85-9.32l.92.42c-2.49,5.47-8.79,7.6-15.45,9.85C355.48,182.44,347.51,185.13,342.92,192.27Z"/></g></svg>