<svg id="hus" xmlns="http://www.w3.org/2000/svg" width="635" height="615" viewBox="0 0 635 615"><defs><style>.cls-1{fill:#f2acac;}.cls-2{fill:#ffe5ee;}.cls-3{fill:#44a694;}.cls-4{fill:#263173;}</style></defs><g id="baggrund"><path class="cls-1" d="M610.5,316c0-161.82-131.18-293-293-293a293,293,0,0,0-293,293c0,161.82,131.18,293,293,293A291.68,291.68,0,0,0,483,557.78C560,505,610.5,416.39,610.5,316Z"/><path class="cls-2" d="M44.5,301A292.44,292.44,0,0,1,152,74.22C75,127,24.5,215.61,24.5,316c0,161.82,131.18,293,293,293A291.82,291.82,0,0,0,503,542.78,291.68,291.68,0,0,1,337.5,594C175.68,594,44.5,462.82,44.5,301Z"/></g><g id="hus-2" data-name="hus"><polygon class="cls-3" points="452.28 274 319.83 274 187.37 274 253.6 205.05 319.83 136.1 386.06 205.05 452.28 274"/><rect class="cls-3" x="148.5" y="233" width="354" height="292" rx="52.24"/></g><path class="cls-4" d="M445.9,361.3c0-37.72-28.88-68.3-64.5-68.3-20.91,0-37.54,17.82-49.33,34.15C320.28,310.82,299.86,293,279,293c-35.62,0-66.38,30.62-64.5,68.3,3.79,75.88,116,125.21,116,125.21S445.9,433.39,445.9,361.3Z"/><g id="tag"><rect class="cls-4" x="181.03" y="66.75" width="57" height="328.05" rx="12" transform="translate(240.98 -79.34) rotate(48.03)"/><rect class="cls-4" x="403.15" y="48.77" width="57" height="337.95" rx="12" transform="translate(882.22 42.46) rotate(131.97)"/></g><g id="skorsten"><rect class="cls-4" x="187" y="153" width="33" height="71" rx="12"/><rect class="cls-4" x="179" y="151" width="49" height="10" rx="5"/></g><path class="cls-4" d="M223,122.44c0-6.2-4.74-11.22-10.59-11.22-3.44,0-6.17,2.93-8.1,5.61-1.94-2.68-5.29-5.61-8.73-5.61A10.73,10.73,0,0,0,185,122.44c.62,12.46,19,20.56,19,20.56S223,134.28,223,122.44Z"/><path class="cls-4" d="M257.84,94.69c0-6.2-4.74-11.22-10.59-11.22-3.43,0-6.17,2.93-8.1,5.61-1.94-2.68-5.29-5.61-8.72-5.61a10.73,10.73,0,0,0-10.6,11.22c.63,12.46,19,20.56,19,20.56S257.84,106.53,257.84,94.69Z"/><path class="cls-4" d="M216.84,74.69c0-6.2-4.74-11.22-10.59-11.22-3.43,0-6.17,2.93-8.1,5.61-1.94-2.68-5.29-5.61-8.72-5.61a10.73,10.73,0,0,0-10.6,11.22c.63,12.46,19,20.56,19,20.56S216.84,86.53,216.84,74.69Z"/></svg>