<svg xmlns="http://www.w3.org/2000/svg" width="635" height="451" viewBox="0 0 635 451"><defs><style>.cls-1{fill:#ffe181;}.cls-2{fill:#c69c6d;}.cls-3{fill:#f2acac;}.cls-4{fill:#f2f2f2;}.cls-5{fill:#42210b;}.cls-10,.cls-11,.cls-12,.cls-6,.cls-7,.cls-8,.cls-9{fill:#8c6239;}.cls-7{opacity:0.73;}.cls-8{opacity:0.62;}.cls-9{opacity:0.56;}.cls-10{opacity:0.69;}.cls-11{opacity:0.57;}.cls-12{opacity:0.7;}</style></defs><g id="leopard"><path class="cls-1" d="M484.3,146.05l-44-24.19-44-24.2c-17-9.34-18.45-38,7.24-53.74,12.64-7.74,54.82-22.42,62-24.45,6.13-1.72,13.25-4.87,19.71-4.43a28.91,28.91,0,0,1,12.88,4.15c6.85,4.15,10.8,11.23,13.48,18.55s14.2,47.55,15.31,60.69a104.62,104.62,0,0,1,.17,16.7C524.4,150.24,501.3,155.4,484.3,146.05Z"/><path class="cls-1" d="M212.56,103.23l-43.63,24.91-43.64,24.91c-16.85,9.61-42-4.12-42-34.25,0-14.81,9.52-58.46,11.56-65.68C96.55,47,97.59,39.28,101.34,34a28.86,28.86,0,0,1,10.26-8.81c7.12-3.68,15.21-3.35,22.86-1.81s48,12.73,59.75,18.65a104.84,104.84,0,0,1,14.33,8.58C237.08,71.23,229.42,93.62,212.56,103.23Z"/><ellipse class="cls-1" cx="308.84" cy="234.41" rx="236.27" ry="187.59"/><path class="cls-2" d="M480.12,105.22,456.65,92.37,433.18,79.52c-9.07-5-9.86-20.22,3.8-28.63,6.73-4.13,29.18-12,33-13.07,3.26-.93,7.05-2.61,10.49-2.38a15.33,15.33,0,0,1,6.86,2.2c3.66,2.21,5.76,6,7.2,9.87s7.6,25.31,8.21,32.3a56.28,56.28,0,0,1,.1,8.9C501.48,107.41,489.18,110.18,480.12,105.22Z"/><path class="cls-2" d="M174.86,86.6,151.63,99.87l-23.24,13.26c-9,5.12-22.39-2.19-22.39-18.24,0-7.89,5.07-31.13,6.15-35,.93-3.26,1.48-7.37,3.48-10.18A15.28,15.28,0,0,1,121.1,45c3.79-2,8.1-1.79,12.17-1s25.54,6.77,31.82,9.93a55.59,55.59,0,0,1,7.63,4.57C187.92,69.56,183.84,81.48,174.86,86.6Z"/><ellipse class="cls-3" cx="191.03" cy="306.21" rx="49.66" ry="17.12"/><circle cx="222.71" cy="281.38" r="38.53"/><ellipse class="cls-3" cx="410.89" cy="307.79" rx="48.86" ry="16.85"/><circle cx="383.09" cy="283.36" r="37.91"/><circle class="cls-4" cx="383.36" cy="285.12" r="29.5"/><path d="M383.85,284.22l18.44,7.24c-4.31,11-16.17,16.71-26.28,12.74s-14.9-16.26-10.59-27.22,16.17-16.72,26.28-12.75a19.4,19.4,0,0,1,11.69,14.14Z"/><circle class="cls-4" cx="376.55" cy="296.21" r="4.5"/><circle class="cls-4" cx="224.36" cy="281.12" r="29.5"/><path d="M224.85,280.22l18.44,7.24c-4.31,11-16.17,16.71-26.28,12.74s-14.9-16.26-10.59-27.22,16.17-16.72,26.28-12.75a19.4,19.4,0,0,1,11.69,14.14Z"/><circle class="cls-4" cx="217.55" cy="292.21" r="4.5"/><path class="cls-5" d="M283.66,317.6c-2-2.07.5-4.65,4.5-4.65h23.25c4,0,6.51,2.58,4.51,4.65l-5.81,6-5.82,6c-2,2.06-7,2.06-9,0l-5.81-6Z"/><path d="M343,346.06c-2.83,4.24-6.19,8.69-10.49,11.37a12.3,12.3,0,0,1-2.73,1.35,6.86,6.86,0,0,1-3,.45,7.12,7.12,0,0,1-2.13-.45c-.88-.29.27.21-.53-.24-.41-.23-.82-.47-1.22-.73a6.15,6.15,0,0,1-.52-.37c.62.46.16.12,0,0-.32-.3-.65-.58-1-.89a25.35,25.35,0,0,1-2-2.26c.46.57-.3-.41-.44-.6-.28-.39-.55-.77-.81-1.16-.61-.89-1.2-1.79-1.78-2.68-2.16-3.32-4.34-6.84-7.37-9.44a15,15,0,0,0-12.26-3.79c-3.79.58-7.06,2.77-9.89,5.24a87.82,87.82,0,0,0-7.79,8.23c-1.21,1.36-2.43,2.71-3.73,4-.62.61-1.27,1.2-1.93,1.76l-.46.38c.1-.08.67-.47.1-.08-.35.23-.69.48-1.05.7s-.7.41-1,.6c-1,.52.52-.07-.5.21l-1.09.29c-.75.22.67.05-.32,0h-.5c-.45,0-.77-.27,0,0-.41-.16-.88-.2-1.3-.35-.6-.21.45.24-.11-.06-.28-.14-.56-.29-.83-.46a3.57,3.57,0,0,1-1.08-.86c-3.78-3.54-5.78-9.18-7.39-14.27a4,4,0,0,0-4.79-2.72,3.93,3.93,0,0,0-2.72,4.79c2.85,9,8.6,23.35,20.48,21.5,7.54-1.17,12.64-8.85,17.41-14.06a50,50,0,0,1,4.26-4.23c.32-.28.64-.55,1-.81-.71.56.39-.27.58-.39a18.26,18.26,0,0,1,2.32-1.32c.52-.26-.89.27,0,0l.54-.19c.36-.11.72-.19,1.09-.29l.55-.1c-.95.17-.41,0-.19.05h1.43c.94,0-.6-.13,0,0l.63.13a10.59,10.59,0,0,1,1.35.43c-.79-.31.24.15.47.28a11.44,11.44,0,0,1,1.31.87c-.65-.49.23.22.44.41.36.33.7.68,1,1s.59.66.88,1l.53.66c-.34-.43,0-.06.13.18,1.22,1.68,2.34,3.42,3.47,5.16,2.45,3.74,5,7.47,8.76,10.05,5.09,3.53,11.59,3.12,16.85.19,5.95-3.33,10.36-9.08,14.08-14.64a3.94,3.94,0,0,0-1.4-5.33,4,4,0,0,0-5.33,1.4Z"/><path d="M527.4,291.05a290.08,290.08,0,0,0,41.72-8.93c2.4-.7,1.38-4.46-1-3.75a289.79,289.79,0,0,1-41.72,8.93,2,2,0,0,0-1.36,2.39,2,2,0,0,0,2.4,1.36Z"/><path d="M529.49,304.75a353.24,353.24,0,0,0,43.59,3.37c2.5,0,2.5-3.86,0-3.89A344.29,344.29,0,0,1,530.52,301a2,2,0,0,0-2.39,1.36,2,2,0,0,0,1.36,2.4Z"/><path d="M92.76,283A253.11,253.11,0,0,0,53,272.67c-2.46-.43-3.51,3.33-1,3.76a252,252,0,0,1,39.81,10.33c2.37.82,3.39-2.94,1-3.76Z"/><path d="M92.87,296.5a343.61,343.61,0,0,0-39,5.24c-2.46.47-1.42,4.23,1,3.75a334.5,334.5,0,0,1,38-5.09c2.48-.19,2.5-4.09,0-3.9Z"/><path class="cls-6" d="M162.14,168.86c0,13.26-18.68,32.45-30.51,32.45s-21.41-10.75-21.41-24,9.59-24,21.41-24S162.14,155.59,162.14,168.86Z"/><path class="cls-7" d="M203.68,118.23c0,12.54.37,22.07-10.38,22.07s-19.47-10.17-19.47-22.72,8.71-22.72,19.47-22.72S203.68,105.68,203.68,118.23Z"/><path class="cls-6" d="M223.16,191.57c0,14.7-8.72,26.62-19.48,26.62s-29.85-10-29.85-24.67S192.93,165,203.68,165,223.16,176.88,223.16,191.57Z"/><path class="cls-6" d="M292,166.26c0,14-19.4,13-30.51,13s-20.12-11.33-20.12-25.31,9-25.32,20.12-25.32S292,152.28,292,166.26Z"/><path class="cls-8" d="M312.73,224.68c0,14.67-19.33,32.38-30.35,32.38s-20-11.9-20-26.58,8.94-26.57,20-26.57S312.73,210,312.73,224.68Z"/><path class="cls-6" d="M353,133.16c0,14-7.55,25.31-16.87,25.31s-23.37-10.68-23.37-24.66,14-26,23.37-26S353,119.18,353,133.16Z"/><path class="cls-6" d="M521.74,203.91c0,17.56-16.67,41.54-29.21,41.54s-22.72-14.24-22.72-31.81,10.17-31.8,22.72-31.8S521.74,186.34,521.74,203.91Z"/><path class="cls-6" d="M377.64,207.8c0,12.55-12.32,13-22.72,13s-18.82-10.17-18.82-22.71,8.42-22.72,18.82-22.72S377.64,195.26,377.64,207.8Z"/><path class="cls-6" d="M411.39,83.18c0,15-15.65,37.64-28.56,37.64s-23.37-12.2-23.37-27.26S369.93,66.3,382.83,66.3,411.39,68.12,411.39,83.18Z"/><path class="cls-6" d="M298.45,90.32c0,13.26-8.72,24-19.47,24s-28.56-11.4-28.56-24.66S268.22,66.3,279,66.3,298.45,77.05,298.45,90.32Z"/><path class="cls-9" d="M427,168.86c0,11.11-15.19,23.36-22.72,23.36s-13.63-9-13.63-20.12S397.37,152,404.9,152,427,157.74,427,168.86Z"/><path class="cls-6" d="M499.67,148.09c0,13.26-11.45,16.87-20.77,16.87S462,154.21,462,141s7.55-24,16.88-24S499.67,134.82,499.67,148.09Z"/><path class="cls-6" d="M455.53,241.55c0,12.19-8.43,22.07-18.83,22.07s-18.82-9.88-18.82-22.07S427,213,437.35,213,455.53,229.37,455.53,241.55Z"/><circle class="cls-10" cx="141.37" cy="254.54" r="20.77"/><path class="cls-6" d="M162.14,355.79c0,10.4-16.35,18.18-25.31,18.18s-16.23-8.43-16.23-18.83,6.62-11,15.58-11S162.14,345.4,162.14,355.79Z"/><path class="cls-6" d="M442.55,374c0,12.19-13.47,22.07-22.07,22.07s-9.09-9.88-9.09-22.07.48-22.07,9.09-22.07S442.55,361.78,442.55,374Z"/><path class="cls-11" d="M469.81,350.6c0,12.91,6.39,23.37,14.28,23.37s24.66-17,24.66-29.86S492,327.23,484.09,327.23,469.81,337.7,469.81,350.6Z"/><path class="cls-6" d="M183.56,38.39l12.81,4.68c-2.57,7.34-10,11.61-16.81,9.7-7.21-2-11.33-10.15-9.13-18,.12-.44.27-.88.43-1.31Z"/><path class="cls-6" d="M92.94,63l2.67-13.37c7.66,1.42,13,8.08,12.16,15.14-.89,7.43-8.31,12.74-16.44,11.77-.46-.06-.92-.13-1.37-.22Z"/><path class="cls-6" d="M524.4,85l3.07,13.29c-7.56,1.85-15.17-2-17.31-8.8-2.25-7.13,2.33-15,10.14-17.49.44-.14.88-.26,1.33-.36Z"/><path class="cls-6" d="M438.39,29.13l12.79-4.75c2.8,7.26-.06,15.3-6.51,18.29-6.78,3.15-15.2-.38-18.64-7.81-.2-.42-.37-.84-.53-1.28Z"/><path class="cls-6" d="M544.5,245.13v13.64c-7.78.1-14.32-5.38-14.88-12.47-.58-7.46,5.66-14.12,13.82-14.76.46,0,.92,0,1.38,0Z"/><path class="cls-6" d="M212.17,414.93l-13.38-2.69c1.37-7.5,7.77-12.8,14.71-12.18,7.45.67,13,7.93,12.24,16.09q0,.39-.09.78Z"/><path class="cls-6" d="M450.79,117.61c0,11.11-15.19,23.37-22.71,23.37s-13.64-9-13.64-20.12,6.76-20.12,14.28-20.12S450.79,106.5,450.79,117.61Z"/><path class="cls-6" d="M398.41,360.75c0,8.74-9.54,11.13-17.3,11.13s-14.05-7.09-14.05-15.83,6.29-15.83,14.05-15.83S398.41,352,398.41,360.75Z"/><path class="cls-12" d="M278.23,399.3c0,8.74-9.53,11.12-17.29,11.12s-14.06-7.08-14.06-15.83,6.3-15.83,14.06-15.83S278.23,390.56,278.23,399.3Z"/><path class="cls-6" d="M223.16,370.15c0,10.54-9.14,13.41-16.58,13.41s-13.47-8.54-13.47-19.08,6-19.07,13.47-19.07S223.16,359.62,223.16,370.15Z"/><path class="cls-6" d="M504.86,302.26c0,9.82-9.54,12.5-17.3,12.5s-14.05-8-14.05-17.78,6.29-17.78,14.05-17.78S504.86,292.45,504.86,302.26Z"/><path class="cls-6" d="M329.6,272.78c0,9.11.27,16-7.35,16s-13.79-7.38-13.79-16.48,6.17-16.48,13.79-16.48S329.6,263.68,329.6,272.78Z"/><path class="cls-6" d="M124.84,312.57c0,8.39-5.52,15.2-12.32,15.2s-18.07-7.22-18.07-15.61,11.26-14.78,18.07-14.78S124.84,304.18,124.84,312.57Z"/><path class="cls-6" d="M72.57,244.15l.11-13.74c7.88-.34,14.67,5,15.42,12,.8,7.44-5.33,14.28-13.56,15.16q-.75.07-1.5.09Z"/><path class="cls-6" d="M350.38,394.74c0,8.6-16.07,15.58-24.67,15.58s-22.07-1.79-22.07-10.39,13.47-20.77,22.07-20.77S350.38,386.13,350.38,394.74Z"/></g></svg>