<svg xmlns="http://www.w3.org/2000/svg" width="635" height="451" viewBox="0 0 635 451"><defs><style>.cls-1{fill:#d9564a;}.cls-2{fill:#f2acac;}.cls-3{fill:#f2f2f2;}.cls-4{fill:#e6e6e6;}</style></defs><g id="mariehøne_2"><g id="ben_bagved" data-name="ben bagved"><path d="M258.5,306h-1a12,12,0,0,0-12,12v39H234a11.5,11.5,0,0,0,0,23h24a11.51,11.51,0,0,0,9.63-5.24A12,12,0,0,0,270.5,367V318A12,12,0,0,0,258.5,306Z"/><path d="M502.5,323a12,12,0,0,0-12-12h-1a12,12,0,0,0-12,12v39H466a11.5,11.5,0,0,0,0,23h24a11.51,11.51,0,0,0,9.63-5.24A12,12,0,0,0,502.5,372Z"/><path d="M372.5,323h-1a12,12,0,0,0-12,12v39H348a11.5,11.5,0,0,0,0,23h24a11.51,11.51,0,0,0,9.63-5.24A12,12,0,0,0,384.5,384V335A12,12,0,0,0,372.5,323Z"/></g><ellipse class="cls-1" cx="353.63" cy="211.5" rx="207.56" ry="148.5"/><circle cx="415.5" cy="260" r="34"/><circle cx="256.5" cy="158" r="34"/><circle cx="372.5" cy="132" r="34"/><circle cx="488.5" cy="192" r="34"/><circle cx="294.5" cy="257" r="34"/><g id="ben_foran" data-name="ben foran"><path d="M220.5,287h-1a12,12,0,0,0-12,12v38H192a11.5,11.5,0,0,0,0,23h24a10.91,10.91,0,0,0,1.73-.15,11.53,11.53,0,0,0,1.77.15h1a12,12,0,0,0,12-12V299A12,12,0,0,0,220.5,287Z"/><path d="M322.5,318h-1a12,12,0,0,0-12,12v38H294a11.5,11.5,0,0,0,0,23h24a10.91,10.91,0,0,0,1.73-.15,11.53,11.53,0,0,0,1.77.15h1a12,12,0,0,0,12-12V330A12,12,0,0,0,322.5,318Z"/><path d="M437.5,311h-1a12,12,0,0,0-12,12v39H412a11.5,11.5,0,0,0,0,23h24a11.42,11.42,0,0,0,6.8-2.26A12,12,0,0,0,449.5,372V323A12,12,0,0,0,437.5,311Z"/></g><ellipse cx="123.5" cy="192" rx="80" ry="74"/><path d="M80.32,136c1.22-10.71-.67-21.91-8.06-29.74C66,99.55,57.18,96.16,48,95c-4.1-.51-5,5.85-.94,6.35,7.42.92,15,3.54,20,8.93,6.29,6.68,7.89,16,6.85,25.09-.47,4.1,5.93,4.66,6.4.55Z"/><path d="M164.69,141.11c-4.58-9.75-6.38-21-1.89-30.76C166.62,102,173.87,96,182.24,92c3.72-1.79,6.64,3.94,2.92,5.73-6.74,3.24-13,8.13-16.13,14.87-3.82,8.34-2.36,17.63,1.55,26,1.76,3.73-4.13,6.32-5.89,2.57Z"/><ellipse class="cls-2" cx="70.5" cy="219.5" rx="17" ry="5.5"/><ellipse class="cls-3" cx="87" cy="205" rx="18" ry="17.5" transform="translate(-133.89 233.3) rotate(-74.3)"/><ellipse class="cls-2" cx="156.5" cy="219.5" rx="17" ry="5.5"/><ellipse class="cls-3" cx="149" cy="207" rx="17.5" ry="18"/><circle cx="81" cy="199.5" r="8.5"/><circle cx="144" cy="200.5" r="8.5"/><path class="cls-4" d="M105.3,222.82c3.62,4.49,8.35,7.72,13.44,7.17,4.32-.47,8.17-3.32,11.3-7.17,1.4-1.72-.7-4.48-2.09-2.77-2.52,3.11-5.71,5.65-9.21,6-4.34.47-8.26-2.18-11.35-6-1.39-1.72-3.48,1-2.09,2.77Z"/></g></svg>