<svg xmlns="http://www.w3.org/2000/svg" width="635" height="451" viewBox="0 0 635 451"><defs><style>.cls-1{fill:#d9564a;}.cls-2{fill:#f2f2f2;}</style></defs><g id="mariehøne"><rect x="484.5" y="184" width="41" height="17" rx="8.5" transform="translate(-32.04 131.95) rotate(-14.43)"/><rect x="444.5" y="339" width="41" height="17" rx="8.5" transform="translate(288.39 -205.48) rotate(35.52)"/><rect x="88.5" y="260" width="49" height="17" rx="8.5" transform="translate(-27.7 13.42) rotate(-6.06)"/><rect x="92.68" y="183.53" width="41" height="17" rx="8.5" transform="translate(174.92 406.21) rotate(-165.57)"/><rect x="130.68" y="340.53" width="41" height="17" rx="8.5" transform="translate(476.99 545.29) rotate(144.48)"/><rect x="480.5" y="260" width="49" height="17" rx="8.5" transform="translate(23.13 -39.59) rotate(4.59)"/><ellipse class="cls-1" cx="308.99" cy="225" rx="189" ry="186.5" transform="translate(59.96 514.97) rotate(-85.41)"/><path d="M307.86,150.35,152.17,165.87c-.48.34-20.49.79-19.18-4.17,13-49.12,76.3-124.19,174.74-125.85C396,34.36,469,100.42,484.27,159.83Z"/><rect x="302.5" y="134" width="12" height="280"/><path d="M405.42,78.7c.16-10.78,3.46-21.65,11.79-28.48,7.08-5.8,16.24-8,25.52-8,4.14,0,4.25,6.45.12,6.43-7.48,0-15.29,1.59-21,6.29-7.09,5.83-9.87,14.82-10,24,0,4.13-6.48,3.87-6.42-.26Z"/><path d="M216,75.89c-.15-10.78-3.45-21.65-11.78-28.48-7.08-5.8-16.24-8-25.52-8-4.14,0-4.25,6.44-.12,6.42,7.47,0,15.29,1.59,21,6.3,7.09,5.82,9.86,14.81,10,24,.06,4.13,6.48,3.87,6.42-.26Z"/><circle class="cls-2" cx="239" cy="145.5" r="30.5"/><path d="M238.28,144.33l19.06,7.48c-4.45,11.34-16.71,17.29-27.17,13.18s-15.4-16.81-10.95-28.15,16.72-17.28,27.18-13.17a20,20,0,0,1,12.08,14.61Z"/><circle class="cls-2" cx="231" cy="157.5" r="4.5"/><circle class="cls-2" cx="386" cy="146.5" r="29.5"/><path d="M386.5,145.6l18.43,7.24c-4.3,11-16.17,16.71-26.28,12.74s-14.89-16.26-10.59-27.22,16.17-16.72,26.29-12.74A19.37,19.37,0,0,1,406,139.75Z"/><circle class="cls-2" cx="379.19" cy="157.59" r="4.5"/><path d="M196.55,276.45c0-8-6.14-14.5-13.7-14.5-4.44,0-8,3.78-10.48,7.25-2.5-3.47-6.84-7.25-11.28-7.25a13.87,13.87,0,0,0-13.7,14.5C148.2,292.57,172,303,172,303S196.55,291.76,196.55,276.45Z"/><path d="M255.55,333.45c0-8-6.14-14.5-13.7-14.5-4.44,0-8,3.78-10.48,7.25-2.5-3.47-6.84-7.25-11.28-7.25a13.87,13.87,0,0,0-13.7,14.5C207.2,349.57,231,360,231,360S255.55,348.76,255.55,333.45Z"/><path d="M404.18,215.45c0-8-6.13-14.5-13.7-14.5-4.44,0-8,3.78-10.47,7.25-2.51-3.47-6.84-7.25-11.28-7.25a13.87,13.87,0,0,0-13.7,14.5c.8,16.12,24.62,26.59,24.62,26.59S404.18,230.76,404.18,215.45Z"/><path d="M471.18,271.45c0-8-6.13-14.5-13.7-14.5-4.44,0-8,3.78-10.47,7.25-2.51-3.47-6.84-7.25-11.28-7.25a13.87,13.87,0,0,0-13.7,14.5c.8,16.12,24.62,26.59,24.62,26.59S471.18,286.76,471.18,271.45Z"/><path d="M415.18,333.45c0-8-6.13-14.5-13.7-14.5-4.44,0-8,3.78-10.47,7.25-2.51-3.47-6.84-7.25-11.28-7.25a13.87,13.87,0,0,0-13.7,14.5c.8,16.12,24.62,26.59,24.62,26.59S415.18,348.76,415.18,333.45Z"/><path d="M251.48,222.5c0-8-6.13-14.5-13.7-14.5-4.44,0-8,3.78-10.47,7.25C224.8,211.78,220.47,208,216,208a13.87,13.87,0,0,0-13.7,14.5c.8,16.12,24.62,26.59,24.62,26.59S251.48,237.81,251.48,222.5Z"/></g></svg>