<svg xmlns="http://www.w3.org/2000/svg" width="635" height="615" viewBox="0 0 635 615"><defs><style>.cls-1{fill:#f2acac;}.cls-2{fill:#ffe5ee;}.cls-3{fill:#44a694;}.cls-4{fill:#263173;}</style></defs><g id="natur"><g id="baggrund"><path class="cls-1" d="M610.5,307.27c0-161.82-131.18-293-293-293a293,293,0,0,0-293,293c0,161.82,131.18,293,293,293A291.68,291.68,0,0,0,483,549.05C560,496.25,610.5,407.66,610.5,307.27Z"/><path class="cls-2" d="M44.5,292.27A292.44,292.44,0,0,1,152,65.49C75,118.29,24.5,206.88,24.5,307.27c0,161.82,131.18,293,293,293A291.82,291.82,0,0,0,503,534.05,291.68,291.68,0,0,1,337.5,585.27C175.68,585.27,44.5,454.09,44.5,292.27Z"/></g><path class="cls-3" d="M527.5,268c0-21.54-35.59-39-61-39a53.65,53.65,0,0,0-8.18.63q4.06-9.49,8.18-19.13C498.5,136,408.07,65,336,65c-59.79,0-110.19,44.83-125.63,106-40.28-6.86-95.87,33.13-95.87,69,0,28.8,32.8,53.09,68.73,62.65-11.33,7-17.73,14.93-17.73,23.35,0,28.17,71.63,51,160,51s160-22.83,160-51c0-6.87-4.28-13.43-12-19.41C498,303.86,527.5,287.62,527.5,268Z"/><g id="stamme"><ellipse class="cls-4" cx="317.5" cy="403" rx="27.5" ry="142"/><ellipse class="cls-4" cx="345.41" cy="291.92" rx="35.32" ry="9.5" transform="translate(-80.1 445.09) rotate(-60)"/><ellipse class="cls-4" cx="289.53" cy="346.88" rx="9.5" ry="35.32" transform="translate(-134.65 191.24) rotate(-30)"/></g><polygon id="græs" class="cls-3" points="361.47 534.05 355.14 523.1 352.3 528.03 347.14 519.1 343.49 525.43 342.14 523.1 339.64 527.43 337.14 523.1 330.82 534.05 330.64 534.36 330.47 534.05 324.14 523.1 322.39 526.13 318.61 519.58 312.86 529.54 309.14 523.1 302.82 534.05 302.64 534.36 302.47 534.05 296.14 523.1 293.8 527.16 289.14 519.1 282.82 530.05 282.49 530.63 278.14 523.1 271.82 534.05 265.5 545 278.14 545 283.5 545 290.79 545 296.14 545 296.5 545 308.79 545 309.14 545 311.5 545 321.79 545 324.14 545 324.5 545 329.5 545 336.79 545 337.14 545 342.14 545 342.5 545 349.79 545 354.79 545 355.14 545 367.79 545 361.47 534.05"/></g></svg>