<svg xmlns="http://www.w3.org/2000/svg" width="635" height="451" viewBox="0 0 635 451"><defs><style>.cls-1{fill:#f2acac;}.cls-2{fill:#263173;}.cls-3{fill:#ffe181;}.cls-4{fill:#c69c6d;}</style></defs><g id="sommerfugl"><path class="cls-1" d="M160.37,61.33c69.33,20.87,131.1,50.23,131.1,112.18a97.37,97.37,0,0,1-2.84,23.31c31.08,20.51,51.1,52.69,51.1,88.88,0,61.95-114.13,127.83-186.53,127.83S77.54,347.65,77.54,285.7A97.27,97.27,0,0,1,83,253.52c-35.83-30.61-61.38-77.47-65.49-115.23C11,78.29,99.71,43.07,160.37,61.33Z"/><path class="cls-2" d="M222.77,190.72c0-8.08-6.19-14.63-13.82-14.63-4.48,0-8,3.82-10.56,7.31-2.53-3.49-6.9-7.31-11.38-7.31a14,14,0,0,0-13.82,14.63C174,207,198,217.54,198,217.54S222.77,206.16,222.77,190.72Z"/><path class="cls-2" d="M138,190.72c0-8.08-6.19-14.63-13.82-14.63-4.48,0-8,3.82-10.56,7.31-2.53-3.49-6.9-7.31-11.38-7.31A14,14,0,0,0,88.4,190.72c.81,16.25,24.84,26.82,24.84,26.82S138,206.16,138,190.72Z"/><path class="cls-2" d="M218.23,316.59c0-14.56-11.16-26.37-24.91-26.37-8.07,0-14.5,6.88-19,13.19-4.55-6.31-12.44-13.19-20.51-13.19a25.23,25.23,0,0,0-24.91,26.37c1.47,29.3,44.78,48.35,44.78,48.35S218.23,344.43,218.23,316.59Z"/><path class="cls-2" d="M173.2,120.28c0-8.08-6.19-14.63-13.82-14.63-4.48,0-8,3.82-10.56,7.31-2.53-3.49-6.9-7.31-11.38-7.31a14,14,0,0,0-13.82,14.63c.81,16.25,24.84,26.82,24.84,26.82S173.2,135.72,173.2,120.28Z"/><path class="cls-1" d="M481.32,58C412,78.9,350.23,108.26,350.23,170.21a96.93,96.93,0,0,0,2.84,23.31C322,214,302,246.21,302,282.39c0,62,114.13,127.84,186.54,127.84s75.66-65.88,75.66-127.84a97.26,97.26,0,0,0-5.49-32.17c35.84-30.61,61.39-77.47,65.49-115.23C630.68,75,542,39.77,481.32,58Z"/><path class="cls-2" d="M516.17,316c0-14.21-10.89-25.74-24.32-25.74-7.88,0-14.15,6.72-18.59,12.87-4.44-6.15-12.14-12.87-20-12.87A24.61,24.61,0,0,0,428.93,316c1.43,28.61,43.7,47.2,43.7,47.2S516.17,343.14,516.17,316Z"/><path class="cls-2" d="M469.36,208.51c0-8.08-6.18-14.63-13.82-14.63-4.47,0-8,3.82-10.56,7.32-2.53-3.5-6.9-7.32-11.38-7.32a14,14,0,0,0-13.82,14.63c.82,16.26,24.84,26.82,24.84,26.82S469.36,224,469.36,208.51Z"/><path class="cls-2" d="M563.28,190.25c0-8.08-6.18-14.63-13.82-14.63-4.47,0-8,3.82-10.56,7.32-2.53-3.5-6.9-7.32-11.38-7.32a14,14,0,0,0-13.82,14.63c.82,16.26,24.84,26.82,24.84,26.82S563.28,205.69,563.28,190.25Z"/><path class="cls-2" d="M515,112c0-8.08-6.19-14.63-13.82-14.63-4.48,0-8,3.82-10.57,7.32-2.52-3.5-6.9-7.32-11.37-7.32A14,14,0,0,0,465.44,112c.81,16.26,24.84,26.83,24.84,26.83S515,127.43,515,112Z"/><g id="krop"><path class="cls-3" d="M395.23,130.43a73.7,73.7,0,1,0-127,50.85c-9.48,23.72-15.16,53.9-15.16,86.76,0,76.37,30.66,138.28,68.48,138.28S390,344.41,390,268c0-32.86-5.68-63-15.16-86.76A73.43,73.43,0,0,0,395.23,130.43Z"/><path class="cls-4" d="M253.05,268a269.72,269.72,0,0,0,3.59,44.36H386.41A268.61,268.61,0,0,0,390,268c0-8.46-.38-16.74-1.1-24.78H254.15C253.43,251.3,253.05,259.58,253.05,268Z"/></g><g id="ansigt"><ellipse class="cls-1" cx="285.66" cy="138.25" rx="8.48" ry="4.57"/><circle cx="291.53" cy="133.69" r="7.83"/><ellipse class="cls-1" cx="353.49" cy="138.25" rx="8.48" ry="4.57"/><circle cx="347.62" cy="133.69" r="7.83"/><path d="M303.19,142.9c4.8,4.49,11.06,7.72,17.79,7.17,5.73-.47,10.83-3.32,15-7.17,1.85-1.72-.93-4.48-2.77-2.77-3.34,3.11-7.57,5.65-12.21,6-5.74.47-10.93-2.18-15-6-1.83-1.72-4.61,1-2.76,2.77Z"/></g><path d="M351.56,71.46c-.81-6.53.25-13.49,4.66-18.62,3.75-4.35,9-6.81,14.6-7.9,2.48-.48,3.09,3.38.62,3.87-4.48.88-9,2.8-12.05,6.33-3.75,4.37-4.66,10.13-4,15.7.31,2.5-3.55,3.12-3.87.62Z"/><path d="M295.85,70.56C295.56,64,293.34,57.3,288.13,53c-4.42-3.66-10.05-5.19-15.72-5.34-2.52-.06-2.47,3.85,0,3.92,4.56.11,9.36,1.25,12.94,4.22,4.43,3.68,6.29,9.21,6.54,14.81.11,2.52,4,2.48,3.91,0Z"/></g></svg>