<svg id="Layer_1" data-name="Layer 1" xmlns="http://www.w3.org/2000/svg" width="127.95" height="121.07" viewBox="0 0 127.95 121.07"><defs><style>.cls-1{fill:#e7afae;}.cls-2{fill:#c95d50;}</style></defs><rect class="cls-1" x="8.42" y="7.12" width="113.11" height="108.68" rx="14"/><path class="cls-2" d="M81,84.3C77.19,89.2,72,91.94,67.47,96c-17.12-16.29-23.75-23.74-32.61-46,5.37-2.59,9.4-7,15.27-8.54C56.41,64.3,59.22,72.84,81,84.3Z"/><path class="cls-2" d="M59.23,49.65,53.64,39.38,48.05,29.09c-10.53,5.72-16.56,15-13.47,20.64S48.7,55.37,59.23,49.65Z"/><path class="cls-2" d="M86.93,88.26c-2.5-2.51-5.25-5-7.8-7.37s-5.16-4.61-7.72-7C67,78.33,59.29,88.53,66,94.8S82.36,92.49,86.93,88.26Z"/></svg>