<svg xmlns="http://www.w3.org/2000/svg" width="1920" height="357.001" viewBox="0 0 1920 357.001"><path d="M1920,805c0-45.29-38.75-82-86.56-82a88.8,88.8,0,0,0-60.72,23.56c-9.58-14.68-22-23.56-35.62-23.56-17.91,0-33.81,15.38-43.8,39.15a80.889,80.889,0,0,0-28.58-5.15c-38.29,0-69.62,26.09-72.19,59.11-12.18-17.24-37.69-29.11-67.19-29.11a106.488,106.488,0,0,0-15.64,1.15c-12.87-30-43.93-51.15-80.21-51.15a88.779,88.779,0,0,0-60.72,23.56c-9.58-14.68-22-23.56-35.63-23.56-17.9,0-33.8,15.38-43.8,39.15a80.849,80.849,0,0,0-28.58-5.15,78.54,78.54,0,0,0-45.18,13.91A62.11,62.11,0,0,0,1151.09,795a100.549,100.549,0,0,0-37.53-7,106.26,106.26,0,0,0-15.63,1.15c-12.87-30-43.94-51.15-80.22-51.15A88.78,88.78,0,0,0,957,761.56C947.41,746.88,935,738,921.37,738c-17.91,0-33.81,15.38-43.8,39.15A80.89,80.89,0,0,0,849,772c-28.36,0-52.89,14.31-64.76,35.15-13.73-11.69-34.6-19.15-58-19.15a106.286,106.286,0,0,0-15.64,1.15c-12.87-30-43.93-51.15-80.22-51.15a88.82,88.82,0,0,0-60.72,23.56C560.09,746.88,547.64,738,534,738c-17.91,0-33.81,15.38-43.8,39.15A80.89,80.89,0,0,0,461.66,772c-27.69,0-51.75,13.65-63.92,33.7C384.16,792.56,362,784,337,784a106.259,106.259,0,0,0-15.63,1.15c-12.87-30-43.94-51.15-80.22-51.15a88.8,88.8,0,0,0-60.72,23.56c-9.58-14.68-22-23.56-35.62-23.56-17.91,0-33.81,15.38-43.8,39.15A80.891,80.891,0,0,0,72.38,768C34.52,768,3.47,793.51.29,826H0v254H1920V809h-.11C1920,807.67,1920,806.34,1920,805Zm-321,43,.15-.57.29.57Z" transform="translate(0 -722.999)" fill="#f2acac"/></svg>