<svg xmlns="http://www.w3.org/2000/svg" width="665" height="145" viewBox="0 0 665 145"><g fill="#44a694"><path d="M 612 144.5 L 53 144.5 C 45.91233444213867 144.5 39.03691482543945 143.1119995117188 32.56475067138672 140.3744964599609 C 26.31316757202148 137.7302551269531 20.69858360290527 133.9447479248047 15.87691688537598 129.1230773925781 C 11.05525016784668 124.3014144897461 7.269750118255615 118.6868362426758 4.625500202178955 112.4352493286133 C 1.888000011444092 105.9630813598633 0.5 99.08766937255859 0.5 92 L 0.5 53 C 0.5 45.91233444213867 1.888000011444092 39.03691482543945 4.625500202178955 32.56475067138672 C 7.269750118255615 26.31316757202148 11.05525016784668 20.69858360290527 15.87691688537598 15.87691688537598 C 20.69858360290527 11.05525016784668 26.31316757202148 7.269750118255615 32.56475067138672 4.625500202178955 C 39.03691482543945 1.888000011444092 45.91233444213867 0.5 53 0.5 L 612 0.5 C 619.087646484375 0.5 625.9630737304688 1.888000011444092 632.4352416992188 4.625500202178955 C 638.6868286132812 7.269750118255615 644.301513671875 11.05525016784668 649.1231689453125 15.87691688537598 C 653.94482421875 20.69858360290527 657.7303466796875 26.31316757202148 660.37451171875 32.56475067138672 C 663.1119995117188 39.03691482543945 664.5 45.91233444213867 664.5 53 L 664.5 92 C 664.5 99.08766937255859 663.1119995117188 105.9630813598633 660.37451171875 112.4352493286133 C 657.7303466796875 118.6868362426758 653.94482421875 124.3014144897461 649.1231689453125 129.1230773925781 C 644.301513671875 133.9447479248047 638.6868286132812 137.7302551269531 632.4352416992188 140.3744964599609 C 625.9630737304688 143.1119995117188 619.087646484375 144.5 612 144.5 Z" stroke="none"/><path d="M 53 1 C 45.97955322265625 1 39.16973876953125 2.374755859375 32.759521484375 5.08599853515625 C 26.5675048828125 7.705001831054688 21.00634765625 11.45449829101562 16.23040771484375 16.23042297363281 C 11.45452880859375 21.00633239746094 7.70501708984375 26.56758117675781 5.08599853515625 32.75958251953125 C 2.374755859375 39.16974639892578 1 45.97958374023438 1 53 L 1 92 C 1 99.02041625976562 2.374755859375 105.8302459716797 5.08599853515625 112.2404174804688 C 7.70501708984375 118.4324188232422 11.45452880859375 123.9936676025391 16.23040771484375 128.7695770263672 C 21.00634765625 133.5455017089844 26.5675048828125 137.2949981689453 32.759521484375 139.9140014648438 C 39.16973876953125 142.625244140625 45.97955322265625 144 53 144 L 612 144 C 619.0203857421875 144 625.8302612304688 142.625244140625 632.2404174804688 139.9140014648438 C 638.4324340820312 137.2949981689453 643.99365234375 133.5455017089844 648.7695922851562 128.7695770263672 C 653.5454711914062 123.9936676025391 657.2949829101562 118.4324188232422 659.9140014648438 112.2404174804688 C 662.625244140625 105.8302459716797 664 99.02041625976562 664 92 L 664 53 C 664 45.97958374023438 662.625244140625 39.16974639892578 659.9140014648438 32.75958251953125 C 657.2949829101562 26.56758117675781 653.5454711914062 21.00633239746094 648.7695922851562 16.23042297363281 C 643.99365234375 11.45449829101562 638.4324340820312 7.705001831054688 632.2404174804688 5.08599853515625 C 625.8302612304688 2.374755859375 619.0203857421875 1 612 1 L 53 1 M 53 0 L 612 0 C 641.2710571289062 0 665 23.72891998291016 665 53 L 665 92 C 665 121.2710876464844 641.2710571289062 145 612 145 L 53 145 C 23.72882080078125 145 0 121.2710876464844 0 92 L 0 53 C 0 23.72891998291016 23.72882080078125 0 53 0 Z" stroke="none" fill="#707070"/></g><text transform="translate(63 61)" fill="#fff" font-size="35" font-family="UrbaneRounded-Medium, Urbane Rounded" font-weight="500"><tspan x="0" y="0">10 ting, der nedsætter dit barns </tspan><tspan x="0" y="52">sygedage </tspan></text></svg>