<svg xmlns="http://www.w3.org/2000/svg" width="220.744" height="220.744" viewBox="0 0 220.744 220.744"><path d="M245.244,133.372a110.374,110.374,0,1,0-48.029,91.078A110.372,110.372,0,0,0,245.244,133.372Z" transform="translate(-24.5 -23)" fill="#f2acac"/><path d="M32.034,159.647A110.161,110.161,0,0,1,72.529,74.22a110.369,110.369,0,1,0,132.22,176.5A110.371,110.371,0,0,1,32.034,159.647Z" transform="translate(-24.5 -54.926)" fill="#ffe5ee"/><g transform="translate(46.834 42.604)"><path d="M287.161,188.046H187.37l24.949-25.973L237.267,136.1l24.949,25.973Z" transform="translate(-172.851 -136.1)" fill="#44a694"/><rect width="133.068" height="110.023" rx="52.24" transform="translate(0 36.151)" fill="#44a694"/></g><path d="M301.616,318.728c0-14.209-10.879-25.728-24.3-25.728-7.877,0-14.141,6.713-18.582,12.864C254.3,299.713,246.6,293,238.746,293a24.605,24.605,0,0,0-24.3,25.728c1.428,28.584,43.7,47.166,43.7,47.166S301.616,345.884,301.616,318.728Z" transform="translate(-142.877 -191.292)" fill="#263173"/><g transform="translate(16.578 22.823)"><rect width="21.472" height="123.575" rx="10.736" transform="matrix(0.669, 0.743, -0.743, 0.669, 91.878, 6.143)" fill="#263173"/><rect width="21.472" height="127.304" rx="10.736" transform="matrix(-0.669, 0.743, -0.743, -0.669, 191.305, 85.134)" fill="#263173"/></g><g transform="translate(58.2 48.217)"><rect width="12.431" height="26.745" rx="6.215" transform="translate(3.014 0.753)" fill="#263173"/><rect width="18.458" height="3.767" rx="1.883" fill="#263173"/></g><path d="M199.307,115.447a4.112,4.112,0,0,0-3.989-4.227c-1.3,0-2.324,1.1-3.051,2.113a4.627,4.627,0,0,0-3.289-2.113,4.042,4.042,0,0,0-3.985,4.227c.234,4.694,7.157,7.745,7.157,7.745S199.307,119.907,199.307,115.447Z" transform="translate(-124.533 -77.988)" fill="#263173"/><path d="M234.141,87.7a4.112,4.112,0,0,0-3.989-4.227c-1.292,0-2.324,1.1-3.051,2.113a4.627,4.627,0,0,0-3.285-2.113,4.042,4.042,0,0,0-3.993,4.227c.237,4.694,7.157,7.745,7.157,7.745S234.141,92.157,234.141,87.7Z" transform="translate(-146.243 -60.691)" fill="#263173"/><path d="M193.141,67.7a4.112,4.112,0,0,0-3.989-4.227c-1.292,0-2.324,1.1-3.051,2.113a4.627,4.627,0,0,0-3.285-2.113,4.042,4.042,0,0,0-3.993,4.227c.237,4.694,7.157,7.745,7.157,7.745S193.141,72.157,193.141,67.7Z" transform="translate(-120.688 -48.225)" fill="#263173"/></svg>