<svg xmlns="http://www.w3.org/2000/svg" width="181.258" height="116.943" viewBox="0 0 181.258 116.943"><g transform="translate(62.673 85.081)"><path d="M235.1,306h-.35a4.2,4.2,0,0,0-4.2,4.2v13.655h-4.027a4.026,4.026,0,0,0,0,8.053h8.4a4.03,4.03,0,0,0,3.372-1.835,4.2,4.2,0,0,0,1-2.717V310.2A4.2,4.2,0,0,0,235.1,306Z" transform="translate(-222.5 -306)"/><path d="M471.306,315.2a4.2,4.2,0,0,0-4.2-4.2h-.35a4.2,4.2,0,0,0-4.2,4.2v13.655h-4.026a4.026,4.026,0,1,0,0,8.053h8.4a4.03,4.03,0,0,0,3.372-1.835,4.2,4.2,0,0,0,1-2.717Z" transform="translate(-373.27 -309.249)"/><path d="M349.1,323h-.35a4.2,4.2,0,0,0-4.2,4.2v13.655h-4.026a4.026,4.026,0,0,0,0,8.053h8.4a4.03,4.03,0,0,0,3.372-1.835,4.2,4.2,0,0,0,1-2.717V327.2A4.2,4.2,0,0,0,349.1,323Z" transform="translate(-296.585 -317.048)"/></g><ellipse cx="72.673" cy="51.994" rx="72.673" ry="51.994" transform="translate(35.913)" fill="#d9564a"/><circle cx="11.947" cy="11.947" r="11.947" transform="translate(118.274 57.209)"/><circle cx="11.947" cy="11.947" r="11.947" transform="translate(62.124 21.368)"/><circle cx="11.947" cy="11.947" r="11.947" transform="translate(102.743 11.811)"/><circle cx="11.947" cy="11.947" r="11.947" transform="translate(143.362 33.315)"/><circle cx="11.947" cy="11.947" r="11.947" transform="translate(76.46 56.014)"/><g transform="translate(47.968 78.429)"><path d="M194.505,287h-.35a4.2,4.2,0,0,0-4.2,4.2v13.3h-5.427a4.026,4.026,0,0,0,0,8.053h8.4a3.819,3.819,0,0,0,.606-.052,4.039,4.039,0,0,0,.62.052h.35a4.2,4.2,0,0,0,4.2-4.2V291.2A4.2,4.2,0,0,0,194.505,287Z" transform="translate(-180.5 -287)"/><path d="M296.505,318h-.35a4.2,4.2,0,0,0-4.2,4.2v13.3h-5.427a4.026,4.026,0,1,0,0,8.053h8.4a3.815,3.815,0,0,0,.606-.053,4.035,4.035,0,0,0,.62.053h.35a4.2,4.2,0,0,0,4.2-4.2V322.2A4.2,4.2,0,0,0,296.505,318Z" transform="translate(-246.787 -307.146)"/><path d="M413.455,311h-.35a4.2,4.2,0,0,0-4.2,4.2v13.655h-4.377a4.026,4.026,0,0,0,0,8.053h8.4a4,4,0,0,0,2.381-.791,4.2,4.2,0,0,0,2.346-3.76V315.2A4.2,4.2,0,0,0,413.455,311Z" transform="translate(-323.472 -302.597)"/></g><ellipse cx="28.075" cy="26.283" rx="28.075" ry="26.283" transform="translate(0 18.979)"/><path d="M57,109.336c.427-3.75-.235-7.671-2.822-10.413a13.739,13.739,0,0,0-8.494-3.942,1.125,1.125,0,0,0-.329,2.223,11.378,11.378,0,0,1,7,3.127c2.2,2.339,2.763,5.6,2.4,8.785a1.125,1.125,0,0,0,2.241.193Z" transform="translate(-44.105 -83.777)"/><path d="M161.776,108.973c-1.6-3.414-2.234-7.353-.662-10.77a13.679,13.679,0,0,1,6.807-6.425c1.3-.627,2.325,1.38,1.022,2.006A11.518,11.518,0,0,0,163.3,98.99c-1.337,2.92-.826,6.173.543,9.1.616,1.306-1.446,2.213-2.062.9Z" transform="translate(-119.344 -81.624)"/><ellipse cx="5.973" cy="2.389" rx="5.973" ry="2.389" transform="translate(3.584 52.43)" fill="#f2acac"/><ellipse cx="6.302" cy="6.127" rx="6.302" ry="6.127" transform="matrix(0.271, -0.963, 0.963, 0.271, 7.628, 54.134)" fill="#f2f2f2"/><ellipse cx="5.973" cy="2.389" rx="5.973" ry="2.389" transform="translate(33.451 52.43)" fill="#f2acac"/><ellipse cx="5.973" cy="6.571" rx="5.973" ry="6.571" transform="translate(31.062 44.067)" fill="#f2f2f2"/><circle cx="2.987" cy="2.987" r="2.987" transform="translate(9.557 45.262)"/><circle cx="2.987" cy="2.987" r="2.987" transform="translate(32.256 45.262)"/><path d="M105,220.664c1.267,1.572,2.924,2.7,4.706,2.51a6.2,6.2,0,0,0,3.956-2.51c.49-.6-.245-1.569-.732-.97a5.129,5.129,0,0,1-3.225,2.1,4.672,4.672,0,0,1-3.974-2.1C105.248,219.092,104.516,220.044,105,220.664Z" transform="translate(-83.365 -164.706)" fill="#e6e6e6"/></svg>