<svg xmlns="http://www.w3.org/2000/svg" width="220.744" height="220.744" viewBox="0 0 220.744 220.744"><path d="M245.244,124.642a110.374,110.374,0,1,0-48.029,91.078A110.372,110.372,0,0,0,245.244,124.642Z" transform="translate(-24.5 -14.27)" fill="#f2acac"/><path d="M32.034,150.917A110.161,110.161,0,0,1,72.529,65.49a110.369,110.369,0,1,0,132.22,176.5A110.371,110.371,0,0,1,32.034,150.917Z" transform="translate(-24.5 -46.196)" fill="#ffe5ee"/><path d="M270.075,141.469c0-8.114-13.407-14.691-22.978-14.691a20.208,20.208,0,0,0-3.081.237q1.529-3.575,3.081-7.206C259.151,91.745,225.087,65,197.938,65c-22.523,0-41.508,16.887-47.324,39.93-15.173-2.584-36.114,12.48-36.114,25.992,0,10.849,12.356,20,25.89,23.6-4.268,2.637-6.679,5.624-6.679,8.8,0,10.612,26.983,19.212,60.271,19.212s60.271-8.6,60.271-19.212c0-2.588-1.612-5.059-4.52-7.312C258.963,154.978,270.075,148.86,270.075,141.469Z" transform="translate(-80.597 -45.89)" fill="#44a694"/><g transform="translate(90.085 91.276)"><ellipse cx="10.359" cy="53.491" rx="10.359" ry="53.491" transform="translate(9.928 1.666)" fill="#263173"/><ellipse cx="13.305" cy="3.579" rx="13.305" ry="3.579" transform="translate(21.052 23.045) rotate(-60)" fill="#263173"/><ellipse cx="3.579" cy="13.305" rx="3.579" ry="13.305" transform="translate(0 24.285) rotate(-30)" fill="#263173"/></g><path d="M301.651,524.732l-2.384-4.125-1.07,1.857-1.944-3.364-1.375,2.384-.509-.878-.942,1.631-.942-1.631-2.381,4.125-.068.117-.064-.117-2.384-4.125-.659,1.141-1.424-2.467-2.166,3.752-1.4-2.426-2.381,4.125-.068.117-.064-.117-2.384-4.125-.881,1.529-1.755-3.036-2.381,4.125-.124.219-1.639-2.836-2.381,4.125-2.381,4.125h38.532Z" transform="translate(-174.716 -328.932)" fill="#44a694"/></svg>