<svg xmlns="http://www.w3.org/2000/svg" width="220.74" height="220.74" viewBox="0 0 220.74 220.74"><path d="M245.24,124.64a110.372,110.372,0,1,0-48.028,91.076A110.37,110.37,0,0,0,245.24,124.64Z" transform="translate(-24.5 -14.27)" fill="#f2acac"/><path d="M32.036,150.913A110.143,110.143,0,0,1,72.541,65.49,110.375,110.375,0,1,0,204.8,241.987,110.407,110.407,0,0,1,32.036,150.913Z" transform="translate(-24.5 -46.191)" fill="#ffe5ee"/><path d="M228.15,166c-12.972,0-23.488,4.7-33.353,11.749-11.273-7.536-20.6-11.278-33.353-11.278-27.24,0-52.878,24.718-49.323,54.745,3.767,31.719,21.142,45.818,49.342,54.745,12.369,3.919,21.142,2.351,33.353-2.347a44.435,44.435,0,0,0,33.353,1.884c26.306-8.459,46.035-24.439,49.323-54.749C280.735,190.688,255.375,166,228.15,166Z" transform="translate(-78.9 -108.862)" fill="#b2413a"/><path d="M409.442,330.68q1.13-1.27,2.167-2.607L347.892,270.83q-1.221,1.157-2.362,2.43a42.956,42.956,0,1,0,63.9,57.42Z" transform="translate(-217.772 -174.201)" fill="#d9564a"/><path d="M423.555,314.26q1.13-1.27,2.167-2.607L362.012,254.41q-1.221,1.157-2.362,2.43a42.956,42.956,0,0,0,63.9,57.42Z" transform="translate(-226.572 -163.965)" fill="#fb8"/><path d="M463.45,326.454,438.958,304.46c-.309.3-2.849,13.73,5.079,20.746C450.123,330.595,463.171,326.8,463.45,326.454Z" transform="translate(-282.449 -195.152)" fill="#a36100"/><path d="M348.44,173.872c-3.1,1.36-10.064,4.409-11.236,1.741s3.681-8.813,6.782-10.174,9-2.668,10.174,0S351.541,172.512,348.44,173.872Z" transform="translate(-219.303 -107.531)" fill="#44a694"/><ellipse cx="2.638" cy="10.55" rx="2.638" ry="10.55" transform="translate(114.136 53.387)" fill="#a36100"/><path d="M342.4,178.26l-.316-.2c1.8-2.8,4.868-3.84,7.577-4.755,2.536-.855,4.729-1.6,5.6-3.512l.347.158c-.938,2.061-3.312,2.864-5.822,3.711C347.129,174.556,344.126,175.57,342.4,178.26Z" transform="translate(-222.453 -111.208)" fill="#a36100"/></svg>